<svg width="1024" height="1024" viewBox="0 0 1024 1024" fill="none" xmlns="http://www.w3.org/2000/svg">
<g clip-path="url(#clip0_26_194)">
<path d="M513.205 808.093C499.686 807.696 487.649 806.776 486.456 806.048C485.264 805.321 476.155 799.384 466.215 792.855C456.274 786.325 441.31 776.862 432.96 771.825C414.363 760.607 400.858 747.764 398.72 739.262C397.416 734.077 397.832 731.42 402.005 718.297C407.228 701.873 407.762 696.469 405.309 684.906C402.517 671.745 397.501 664.206 378.28 644.283C358.996 624.293 352.531 616.207 344.807 602.422C340.218 594.229 338.535 592.765 336.848 595.495C333.482 600.94 294.166 622.017 276.173 628.023C218.519 647.263 157.799 643.825 107.083 618.448C58.8403 594.307 23.3177 551.288 12.5383 503.95C8.81735 487.61 9.26168 453.43 13.3834 438.946C25.3797 396.789 51.9874 365.672 92.1195 346.865C105.057 340.803 125.215 334.489 136.181 333.066C141.961 332.315 143.59 332.664 146.321 335.239C150.675 339.343 150.675 346.801 146.321 350.79C144.531 352.43 140.14 355.225 136.561 357.002C113.273 368.566 88.5526 394.927 80.2926 417.004C62.5803 464.344 80.1394 512.38 124.69 538.458C164.188 561.58 212.633 560.442 263 535.208C289.86 521.752 309.719 507.651 338.98 481.258C348.92 472.292 361.607 461.59 367.174 457.476C416.182 421.257 472.447 404.336 536.338 406.604C565.542 407.641 586.889 411.211 629.355 422.162C681.041 435.49 694.965 436.134 714.525 426.102C731.057 417.623 763.784 383.732 762.188 376.745C761.795 375.024 760.009 368.411 758.22 362.049C753.273 344.465 753.545 318.96 758.866 301.324C763.877 284.714 766.489 280.259 773.13 276.99C781.587 272.826 786.206 274.694 798.926 287.418C814.884 303.381 823.733 322.252 825.997 345.148L826.954 354.82L840.708 355.719C878.383 358.181 912.483 374.62 931.376 399.428C950.383 424.384 963.508 435.946 992.396 453.177C1014.83 466.557 1017.29 468.911 1018.13 477.803C1018.75 484.312 1018.28 485.742 1012.81 493.914C1006.82 502.874 996.682 511.623 988.839 514.605C981.772 517.292 966.223 518.585 956.001 517.337C950.636 516.681 936.322 513.779 924.192 510.886C893.018 503.452 874.653 503.816 849.513 512.367C828.575 519.489 822.748 523.591 799.482 547.591C787.554 559.896 764.088 584.017 747.335 601.193C730.582 618.37 714.557 635.676 711.723 639.652C701.243 654.358 691.581 677.22 685.278 702.23C682.312 713.998 674.417 764.598 674.417 771.838C674.417 778.329 675.772 779.176 686.159 779.176C703.704 779.176 714.973 793.895 705.69 804.687C702.311 808.615 702.001 808.675 683.777 808.965C654.933 809.423 645.447 805.467 640.457 790.896C639.203 787.234 636.273 769.598 633.946 751.705C631.619 733.813 628.731 711.691 627.528 702.546C623.482 671.791 620.92 645.232 620.92 634.05V622.944L611.884 623.731C606.914 624.164 595.258 625.162 585.982 625.949C567.349 627.53 554.841 630.837 542.831 637.357C530.429 644.089 523.73 652.072 516.378 668.879C507.9 688.259 499.73 699.419 479.943 718.643C470.72 727.604 463.35 735.978 462.979 737.915C461.454 745.893 469.944 756.386 489.808 771.077L500.761 779.176H516.066C526.115 779.176 533.081 779.891 536.353 781.258C544.383 784.614 549.247 795.246 546.284 802.968C544.368 807.962 538.681 808.843 513.205 808.093ZM442.003 742.43C440.933 729.092 444.309 723.047 462.93 704.964C471.259 696.875 480.948 686.253 484.461 681.359C502.203 656.646 507.986 626.471 500.685 596.702C498.18 586.486 497.89 583.26 499.218 580.345C502.829 572.42 513.607 572.04 517.568 579.699C520.173 584.738 525.438 608.542 525.472 615.434C525.485 618.019 526.029 620.133 526.683 620.133C527.337 620.133 531.404 618.222 535.72 615.887C550.176 608.065 568.085 604.531 606.03 602.014C614.143 601.476 621.667 600.29 622.751 599.379C623.835 598.468 626.868 591.867 629.492 584.71C635.54 568.212 641.99 556.735 646.325 554.76C651.101 552.584 657.931 555.661 659.721 560.793C661.164 564.934 661.162 564.94 652.725 583.264C644.218 601.742 641.088 626.064 643.887 651.942C646.383 675.025 654.625 737.278 655.119 736.784C655.359 736.545 657.172 727.604 659.147 716.917C666.068 679.479 676.329 652.102 692.025 629.194C696.849 622.154 711.096 606.639 730.219 587.602C746.994 570.902 766.92 550.082 774.5 541.334C788.616 525.042 800.561 513.826 811.39 506.696L817.513 502.663L811.1 498.415C795.786 488.271 786.075 469.916 791.892 462.109C792.886 460.775 795.746 459.281 798.247 458.79C803.394 457.779 805.007 459.097 811.891 469.938C818.905 480.984 832.047 488.37 844.914 488.498C848.431 488.532 856.889 487.509 863.71 486.224C883.241 482.543 905.131 484.097 935.392 491.311C956.71 496.393 978.045 499.028 978.045 496.577C978.045 496.215 976.418 493.522 974.43 490.592C970.493 484.79 969.632 476.124 972.467 470.827C973.878 468.19 973.616 467.416 970.667 465.5C954.979 455.312 937.459 440.345 927.718 428.811C900.645 396.754 892.658 390.627 867.437 382.569C851.906 377.607 845.725 376.762 826.631 376.991C807.484 377.22 808.283 377.912 806.85 359.881C805.681 345.186 802.973 332.838 798.762 323.011C794.967 314.154 784.941 300.601 782.184 300.601C778.598 300.601 775.216 320.4 775.935 337.181C776.716 355.402 781.291 369.895 791.674 387.034C799.287 399.6 799.785 403.278 794.269 406.229C790.751 408.112 786.468 406.894 780.265 402.246L775.507 398.68L772.313 402.753C740.898 442.818 709.021 459.126 671.897 454.124C664.933 453.186 646.548 449.177 631.041 445.215C615.534 441.252 602.065 437.998 601.108 437.984C599.342 437.956 577.321 464.475 556.917 491.202C547.729 503.237 545 505.911 541.907 505.911C538.368 505.911 538.173 505.561 538.858 500.456C539.794 493.475 552.933 464.448 563.335 446.38C572.583 430.317 573.291 431.602 554.253 429.902L543.25 428.919L534.333 440.633C523.839 454.418 502.291 487.394 485.011 516.11C478.251 527.343 471.531 537.176 470.078 537.961C466.082 540.119 463.323 538.311 463.323 533.536C463.323 524.255 482.467 474.82 498.306 443.201L505.457 428.927L495.595 429.926C473.7 432.144 475.211 431.28 465.107 447.378C451.596 468.904 443.014 484.79 420.67 529.63C404.097 562.888 399.848 570.334 397.226 570.707C391.551 571.514 391.606 565.395 397.495 540.808C404.191 512.856 413.503 484.477 422.866 463.496C426.786 454.71 429.805 447.332 429.575 447.102C429.345 446.872 424.445 448.941 418.687 451.7C398.734 461.263 376.103 477.402 349.858 500.787C308.196 537.909 269.697 560.421 229.247 571.314C213.657 575.512 210.726 575.839 187.889 575.919C165.409 575.998 162.103 575.67 149.18 572.07C97.7789 557.752 61.6232 520.488 53.4441 473.4C52.8935 470.231 52.4557 460.724 52.471 452.273C52.5084 431.643 56.4425 415.389 65.6164 397.963C72.0324 385.775 72.3308 384.795 68.9496 387.01C63.2633 390.736 48.7873 409.718 43.2569 420.7C36.0683 434.974 32.3716 449.447 31.4627 466.873C30.0335 494.276 37.2921 519.162 54.2439 544.978C91.9017 602.327 174.701 631.208 248.614 612.776C282.534 604.317 308.863 591.149 335.129 569.507C346.498 560.139 352.26 561.878 356.876 576.073C362.206 592.464 377.295 613.347 398.923 634.269C413.006 647.892 420.009 657.671 424.562 670.071C429.188 682.669 429.21 709.93 424.604 721.343C420.495 731.525 420.563 733.147 425.341 738.825C428.359 742.411 440.722 751.705 442.475 751.705C442.625 751.705 442.413 747.531 442.003 742.43ZM894.964 442.327C891.002 440.304 886.419 439.402 880.098 439.402C869.348 439.402 862.581 436.892 855.092 430.126C852.094 427.417 846.601 423.857 842.884 422.213C837.975 420.041 836.261 418.523 836.616 416.662C837.001 414.647 839.108 413.899 846.488 413.159C851.648 412.642 858.143 411.503 860.921 410.629C874.925 406.222 883.43 410.249 896.379 427.416C901.59 434.325 905.661 440.979 905.425 442.203C904.782 445.544 901.344 445.584 894.964 442.327ZM255.461 803.141C250.091 798.216 250.061 798.123 250.123 786.875C250.17 778.396 251.926 768.498 257.13 747.368C267.066 707.028 267.526 705.543 272.779 696.873C276.858 690.142 279.725 687.685 293.023 679.523C301.544 674.294 310.722 667.412 313.42 664.232C322.593 653.415 327.848 639.5 329.672 621.197C330.208 615.819 331.095 611.14 331.643 610.801C332.192 610.462 336.262 615.188 340.687 621.304C345.112 627.419 356.801 640.881 366.661 651.219C386.655 672.18 389.839 676.256 392.406 684.167C394.738 691.356 392.799 694.329 380.591 702.283C369.37 709.594 355.726 714.396 334.197 718.614C303.717 724.585 298.754 729.1 289.895 758.921C283.929 779.003 283.948 779.176 292.133 779.176C304.993 779.176 312.955 786.225 312.955 797.61C312.955 807.431 311.143 808.093 284.264 808.093H260.862L255.461 803.141ZM779.611 758.922C774.097 753.408 773.848 752.776 774.505 745.945C774.952 741.287 776.566 736.846 779.097 733.306C790.961 716.713 792.976 713.64 792.971 712.143C792.956 707.672 786.187 700.386 776.287 694.186C742.923 673.291 717.792 656.135 717.792 654.254C717.792 650.411 734.53 631.357 754.382 612.602L773.832 594.227L776.326 603.204C781.685 622.492 792.835 642.127 808.226 659.375C818.066 670.403 824.251 682.934 826.323 696.04C828.552 710.134 825.61 723.21 815.768 742.949C806.977 760.58 802.434 764.718 791.869 764.718C786.255 764.718 784.646 763.957 779.611 758.922ZM870.504 348.275C865.829 346.808 856.232 344.791 849.178 343.793L836.352 341.977L836.374 334.663C836.424 318.036 845.78 292.17 855.623 281.443C859.844 276.843 861.51 276.021 866.617 276.021C874.563 276.021 878.841 280.644 882.535 293.224C886.466 306.611 887.507 320.981 885.563 335.035C883.026 353.384 884.016 352.514 870.504 348.275Z" fill="black"/>
</g>
<defs>
<clipPath id="clip0_26_194">
<rect width="1024" height="1024" fill="white"/>
</clipPath>
</defs>
</svg>
